<svg xmlns="http://www.w3.org/2000/svg" width="124.073" height="121.136" viewBox="0 0 124.073 121.136">
  <path id="Path_2" data-name="Path 2" d="M41.5,105.539c0,.5-.575.9-1.3.9-.825.075-1.4-.326-1.4-.9,0-.5.575-.9,1.3-.9C40.849,104.562,41.5,104.963,41.5,105.539Zm-7.78-1.127c-.175.5.325,1.077,1.076,1.227a1.173,1.173,0,0,0,1.551-.5c.15-.5-.325-1.077-1.076-1.3a1.283,1.283,0,0,0-1.551.576Zm11.056-.426c-.725.175-1.226.651-1.151,1.227.075.5.725.827,1.476.651.725-.175,1.226-.651,1.151-1.152C46.177,104.236,45.5,103.911,44.776,103.986ZM61.236,8C26.541,8,0,34.376,0,69.118c0,27.779,17.46,51.55,42.4,59.916,3.2.576,4.328-1.4,4.328-3.031,0-1.553-.075-10.12-.075-15.38,0,0-17.51,3.757-21.187-7.464,0,0-2.852-7.289-6.954-9.168,0,0-5.728-3.933.4-3.857A13.2,13.2,0,0,1,28.567,96.6c5.478,9.669,14.659,6.888,18.236,5.235a13.929,13.929,0,0,1,4-8.441c-13.983-1.553-28.091-3.582-28.091-27.679,0-6.888,1.9-10.345,5.9-14.754-.65-1.628-2.777-8.341.65-17.008,5.228-1.628,17.26,6.763,17.26,6.763a59.018,59.018,0,0,1,31.418,0S89.978,32.3,95.206,33.95c3.427,8.692,1.3,15.38.65,17.008,4,4.434,6.454,7.89,6.454,14.754,0,24.172-14.734,26.1-28.717,27.679,2.3,1.979,4.252,5.736,4.252,11.623,0,8.441-.075,18.887-.075,20.941,0,1.628,1.151,3.607,4.328,3.031,25.015-8.316,41.975-32.087,41.975-59.866C124.073,34.376,95.931,8,61.236,8ZM24.314,94.392c-.325.25-.25.827.175,1.3.4.4.976.576,1.3.25.325-.25.25-.827-.175-1.3C25.215,94.242,24.639,94.067,24.314,94.392Zm-2.7-2.029c-.175.326.075.726.575.977a.744.744,0,0,0,1.076-.175c.175-.326-.075-.726-.575-.977C22.188,92.038,21.788,92.113,21.613,92.363Zm8.1,8.917c-.4.326-.25,1.077.325,1.553.575.576,1.3.651,1.626.25.325-.326.175-1.077-.325-1.553C30.793,100.955,30.043,100.88,29.717,101.281ZM26.866,97.6c-.4.25-.4.9,0,1.478s1.076.827,1.4.576a1.144,1.144,0,0,0,0-1.553c-.35-.576-1-.827-1.4-.5Z" transform="translate(0 -8)" fill="#fff"/>
</svg>
